PathFileType	4	(X/Y/Z)	/Users/niels/Desktop/University/Third Semester/Perception and Action/Exam/Gymnastics Motion Tracking/Code for Gym Tracking/Analyzed Data/Webcam_Backflip/id6_2_baseline_Sports2D/id6_2_baseline_Sports2D_px_person00.trc
DataRate	CameraRate	NumFrames	NumMarkers	Units	OrigDataRate	OrigDataStartFrame	OrigNumFrames
29.810126582278482	29.810126582278482	10	22	m	29.810126582278482	79	158
Frame#	Time	Hip			RHip			RKnee			RAnkle			RBigToe			RSmallToe			RHeel			LHip			LKnee			LAnkle			LBigToe			LSmallToe			LHeel			Neck			Head			Nose			RShoulder			RElbow			RWrist			LShoulder			LElbow			LWrist		
		X1	Y1	Z1	X2	Y2	Z2	X3	Y3	Z3	X4	Y4	Z4	X5	Y5	Z5	X6	Y6	Z6	X7	Y7	Z7	X8	Y8	Z8	X9	Y9	Z9	X10	Y10	Z10	X11	Y11	Z11	X12	Y12	Z12	X13	Y13	Z13	X14	Y14	Z14	X15	Y15	Z15	X16	Y16	Z16	X17	Y17	Z17	X18	Y18	Z18	X19	Y19	Z19	X20	Y20	Z20	X21	Y21	Z21	X22	Y22	Z22
79	2.6501061571125266	0.8790064013547499	-0.39363889567254373	0.0	0.8710573658691444	-0.39269310403726676	0.0	0.8259454066423945	-0.48771716027657813	0.0	0.7548123611647268	-0.48987714658378806	0.0	0.7458036064879607	-0.5307592304820756	0.0	0.7417677355968486	-0.5229310385385727	0.0	0.7433282778572083	-0.48485021086955643	0.0	0.8842369961858276	-0.39643479166949996	0.0	0.8295262497980826	-0.486909689941245	0.0	0.7955259738840832	-0.49607266412489326	0.0	0.7977483899175065	-0.5268329359732512	0.0	0.803567937644645	-0.5229761018585664	0.0	0.7813362279436759	-0.48910269468663103	0.0	0.9617948675677673	-0.488842045617766	0.0	1.0042404939162741	-0.536196177075564	0.0	0.9756560525580324	-0.5281178391271981	0.0	0.9543004987766458	-0.4778702193398855	0.0	0.8994688232032739	-0.4930770102910275	0.0	0.878287038050519	-0.5285675474173441	0.0	0.9625017361951042	-0.4767984353542639	0.0	0.9101429979882528	-0.491663281814162	0.0	0.8846530173873824	-0.5136529590149675	0.0
80	2.683651804670913	0.8606172247275238	-0.4178575679654688	0.0	0.8531052493296069	-0.4169419439176999	0.0	0.8231927682143565	-0.5207689001834036	0.0	0.7532310227933893	-0.5544686404070933	0.0	0.7569168366012813	-0.5987866478528169	0.0	0.7501051696909552	-0.5931025191555176	0.0	0.7399970113358197	-0.554223403479996	0.0	0.8669977519624656	-0.4201814509285615	0.0	0.8263601352522765	-0.5200990168940435	0.0	0.7968121844487457	-0.5592376385341774	0.0	0.8091831489349375	-0.5941530705219019	0.0	0.8131672099164176	-0.5894505903006332	0.0	0.7795872932058784	-0.5581535965923469	0.0	0.9650878174863571	-0.4847579182145354	0.0	1.0197418760713037	-0.5231892941486888	0.0	0.9868163586667068	-0.5195832187751541	0.0	0.9572509867942619	-0.4768317425905382	0.0	0.9153247780790745	-0.5115644916728384	0.0	0.908434362579966	-0.5558717839029828	0.0	0.9646266429161637	-0.47265757256858176	0.0	0.924759997105455	-0.5071021817035991	0.0	0.9124842399895478	-0.5316303515173	0.0
81	2.7171974522292994	0.8443288575840775	-0.4502730612841389	0.0	0.8380966107340265	-0.44938324940043883	0.0	0.82180580650685	-0.5569494480351974	0.0	0.7598556140246948	-0.6173967800731058	0.0	0.7745863502552401	-0.6602645876979318	0.0	0.766523067216984	-0.6569315027931211	0.0	0.7459733176506133	-0.6221040929832342	0.0	0.8508863617757302	-0.45191252933330384	0.0	0.8243134093121386	-0.5562708223933001	0.0	0.7982137846241018	-0.6195482348618728	0.0	0.8174081954562842	-0.6550269034243625	0.0	0.8190828014385513	-0.6505662785368285	0.0	0.7799192906959567	-0.6239767499648607	0.0	0.961719392400686	-0.4834848356251385	0.0	1.024864161920536	-0.5118289424799575	0.0	0.9895131294676014	-0.5129352422690923	0.0	0.9540836267103557	-0.4789115401364164	0.0	0.9324138473031731	-0.5255094748443379	0.0	0.9422369614123125	-0.5718470028272911	0.0	0.9600687236028772	-0.4717630375392628	0.0	0.9397342581158672	-0.5174496756445601	0.0	0.9429401981854617	-0.5362372071549946	0.0
82	2.7507430997876856	0.8311323463627773	-0.4888762078573293	0.0	0.8264465717430507	-0.48817969436610326	0.0	0.8215659321278097	-0.5961163145588664	0.0	0.7700811999404877	-0.6754543159060877	0.0	0.7925614211281908	-0.7140593570586472	0.0	0.7844382425293326	-0.7127286024508975	0.0	0.756397111748289	-0.6843133836812927	0.0	0.8370994557978713	-0.4899432093743625	0.0	0.8233605849895019	-0.59526187633982	0.0	0.7985193735109488	-0.6747754033856155	0.0	0.8214783257482143	-0.7084175601121057	0.0	0.8208964622326118	-0.7045496129892418	0.0	0.780671642979758	-0.6832972314983937	0.0	0.9527874031694874	-0.48650302991221034	0.0	1.0206513409555182	-0.5042126062008585	0.0	0.9850964432156221	-0.5101228510278362	0.0	0.9455958331020484	-0.48530358095069615	0.0	0.9473003775884029	-0.5346051995966422	0.0	0.9737896140252716	-0.5759298095344545	0.0	0.9499427561572416	-0.4757914815289927	0.0	0.9519301012065251	-0.5225012209096348	0.0	0.969915757197411	-0.527795988851989	0.0
83	2.7842887473460722	0.8214769295816927	-0.5308247834263007	0.0	0.8181807649387592	-0.5305193078624323	0.0	0.8221931282926239	-0.6368508977405452	0.0	0.779975667632851	-0.7268181745469916	0.0	0.8067562581764879	-0.7602837827062229	0.0	0.7993555470074829	-0.7603704217758877	0.0	0.76704923370718	-0.7383603602950332	0.0	0.8264357970938312	-0.5315032923971285	0.0	0.8233796950127852	-0.6357394815707431	0.0	0.7984138703948805	-0.7238677851726582	0.0	0.8231476798194881	-0.7544814515743604	0.0	0.8205255612549177	-0.7509200330994718	0.0	0.7818707509306879	-0.7346636968717394	0.0	0.9398261355917291	-0.4942822349810686	0.0	1.0091865377151752	-0.5013327147068398	0.0	0.975360903647162	-0.5117074922164979	0.0	0.9330465782889303	-0.4961763960943081	0.0	0.9571145496206664	-0.5398693987005203	0.0	0.9978574989688894	-0.5699741700401576	0.0	0.9358262052105942	-0.4853701984858628	0.0	0.9584980612541315	-0.524015189542042	0.0	0.9885754018264952	-0.5128874854701128	0.0
84	2.8178343949044584	0.815082351925749	-0.5724920525852938	0.0	0.8128651579746624	-0.5727055853139188	0.0	0.8233716966100492	-0.6764455278134528	0.0	0.7872764895821514	-0.7703572149350935	0.0	0.8158415438422782	-0.7992969005246288	0.0	0.8095709108611188	-0.8002144163787049	0.0	0.775430690918331	-0.782907655504945	0.0	0.8189651165059086	-0.5729093383666202	0.0	0.8241864471008676	-0.6750988031487805	0.0	0.7980043149356983	-0.7659976193610316	0.0	0.8238238253920518	-0.7935995728052838	0.0	0.8191447998803628	-0.789668151729023	0.0	0.7830067709868238	-0.7774191385694125	0.0	0.9245895950727774	-0.5061489031387626	0.0	0.9930711219668608	-0.5028836778108774	0.0	0.9622543881718523	-0.5169662186368794	0.0	0.9180514205338436	-0.5105685085652086	0.0	0.9603720159594754	-0.5428239067811809	0.0	1.0112451679200072	-0.5574243860818369	0.0	0.9195477714196383	-0.4997345682812123	0.0	0.9582407792540312	-0.5247457853576324	0.0	0.9970460309024151	-0.5000467416614713	0.0
85	2.851380042462845	0.8111181181552253	-0.6098231894229149	0.0	0.8096338776726801	-0.6105544617733489	0.0	0.8251103130278136	-0.7113036701780069	0.0	0.7915102387319998	-0.8048312437442997	0.0	0.8205708446006332	-0.8307976620211289	0.0	0.8155103272037696	-0.8320800017766052	0.0	0.7807958219747747	-0.8170399074525939	0.0	0.8141312696625949	-0.6100431370821833	0.0	0.8259313111644468	-0.7097542877449434	0.0	0.7971996916937785	-0.7998008446102791	0.0	0.8244065891078706	-0.8254348423045634	0.0	0.8173670978350268	-0.8203472673233917	0.0	0.7835457277320232	-0.8107389739832995	0.0	0.9089055569679729	-0.5201497333571783	0.0	0.9749393066140934	-0.5070463017907654	0.0	0.9477555064929818	-0.5240349052223963	0.0	0.9024409340707547	-0.5263716337179813	0.0	0.9573627091210866	-0.5445404095169624	0.0	1.0135783707508366	-0.5421294845520827	0.0	0.9029714933852387	-0.5165509666593455	0.0	0.9521639890172804	-0.5265708785990018	0.0	0.9965668808707254	-0.4933139945790832	0.0
86	2.8849256900212312	0.8086391955369014	-0.638984316357146	0.0	0.8074978192519076	-0.6400933950061887	0.0	0.8278796994809138	-0.7376921013015012	0.0	0.7934954677954017	-0.8285588688274702	0.0	0.8225325572017028	-0.8532984146039124	0.0	0.8184750654748154	-0.8546233516750179	0.0	0.7836234480287136	-0.8397039698194632	0.0	0.8111462906779993	-0.639011475097317	0.0	0.8291618159368149	-0.7359148655488312	0.0	0.7964717026305476	-0.82325954830568	0.0	0.8255139440534317	-0.8484184168386797	0.0	0.815875145344213	-0.8415999659025948	0.0	0.7837490576226895	-0.8332379458645989	0.0	0.8943926787303941	-0.5332657319313895	0.0	0.9569963084745433	-0.5108508043244714	0.0	0.9336209719036486	-0.5302906408208736	0.0	0.8879575277050139	-0.5405797403811732	0.0	0.9499492352990052	-0.5450870944012367	0.0	1.0073019030649517	-0.5270678217889743	0.0	0.8877368101913075	-0.5322838233921403	0.0	0.9428542433347087	-0.5293046440251158	0.0	0.9903155519438712	-0.4915337152445418	0.0
87	2.918471337579618	0.8069646652652421	-0.6571505821830387	0.0	0.8057282879027824	-0.6584340133139842	0.0	0.832254165910473	-0.7527075534566426	0.0	0.7945338513008879	-0.8399879430690184	0.0	0.823172264075033	-0.8646763061121243	0.0	0.8196303811874136	-0.8658212369481416	0.0	0.7849190594257636	-0.8499400809946853	0.0	0.8093483871849101	-0.6569584123607481	0.0	0.8343183912490807	-0.7506810311727232	0.0	0.7965647752319523	-0.8345585188726101	0.0	0.8272381049146804	-0.8603221488511704	0.0	0.8153707123862364	-0.8518037269564859	0.0	0.7842900194925909	-0.8435473140393019	0.0	0.8821562623918104	-0.5421183877412994	0.0	0.9408223998557587	-0.5111660646412947	0.0	0.9211713361912153	-0.5329935083808817	0.0	0.8758831146507088	-0.5499397625783073	0.0	0.9407106714729082	-0.5435494621510752	0.0	0.9965913321843973	-0.5135326138782552	0.0	0.8750226183590558	-0.5431305309084622	0.0	0.9332048587999484	-0.5310531171526764	0.0	0.9819846588355914	-0.4917389738916073	0.0
88	2.952016985138004	0.805798055237574	-0.6631238649530069	0.0	0.8040335300943812	-0.6644278074558723	0.0	0.8383281869659273	-0.7551518814412418	0.0	0.7956478240694572	-0.8388048943396967	0.0	0.8234372515477046	-0.8638020622626893	0.0	0.8196976941714618	-0.8646309698248587	0.0	0.7855911854008817	-0.8478290122390947	0.0	0.8083547363696871	-0.6627326180287281	0.0	0.8411592491655657	-0.7529495972064536	0.0	0.7979275064579384	-0.8333117036924746	0.0	0.8291726023560788	-0.859842511546423	0.0	0.8164025458552372	-0.8505251897849335	0.0	0.7855520388750573	-0.8414770955314327	0.0	0.8727298480529612	-0.5439383243361646	0.0	0.927530099884519	-0.5057320593962592	0.0	0.9112668013687606	-0.529983859352116	0.0	0.8667817327415593	-0.5518565720634152	0.0	0.9318896668179316	-0.538497237368772	0.0	0.9855354048259688	-0.5011927798968783	0.0	0.8654288037021416	-0.5461492573624775	0.0	0.9252614941556477	-0.5293331530029727	0.0	0.9745623811289708	-0.49083049179335525	0.0
